<?xml version="1.0" encoding="UTF-8" standalone="no"?>
<!-- Created with Inkscape (http://www.inkscape.org/) -->

<svg
   xmlns:dc="http://purl.org/dc/elements/1.1/"
   xmlns:cc="http://creativecommons.org/ns#"
   xmlns:rdf="http://www.w3.org/1999/02/22-rdf-syntax-ns#"
   xmlns:svg="http://www.w3.org/2000/svg"
   xmlns="http://www.w3.org/2000/svg"
   xmlns:sodipodi="http://sodipodi.sourceforge.net/DTD/sodipodi-0.dtd"
   xmlns:inkscape="http://www.inkscape.org/namespaces/inkscape"
   width="960"
   height="360"
   viewBox="0 0 253.99999 95.250002"
   version="1.1"
   id="svg17671"
   inkscape:version="0.92.2 (5c3e80d, 2017-08-06)"
   sodipodi:docname="kamera_Blurdruck.svg">
  <defs
     id="defs17665">
    <clipPath
       clipPathUnits="userSpaceOnUse"
       id="clipPath9810">
      <path
         d="m 1271.234,2088.266 h 239.133 v -263.551 h -239.133 z"
         id="path9808"
         inkscape:connector-curvature="0" />
    </clipPath>
    <clipPath
       clipPathUnits="userSpaceOnUse"
       id="clipPath9820">
      <path
         d="m 1053,1724 h 698 v 349 h -698 z"
         id="path9818"
         inkscape:connector-curvature="0" />
    </clipPath>
  </defs>
  <sodipodi:namedview
     id="base"
     pagecolor="#ffffff"
     bordercolor="#666666"
     borderopacity="1.0"
     inkscape:pageopacity="0.0"
     inkscape:pageshadow="2"
     inkscape:zoom="0.49497475"
     inkscape:cx="632.91915"
     inkscape:cy="-78.092415"
     inkscape:document-units="mm"
     inkscape:current-layer="g18688"
     showgrid="false"
     inkscape:window-width="1920"
     inkscape:window-height="1143"
     inkscape:window-x="0"
     inkscape:window-y="20"
     inkscape:window-maximized="1"
     units="px" />
  <metadata
     id="metadata17668">
    <rdf:RDF>
      <cc:Work
         rdf:about="">
        <dc:format>image/svg+xml</dc:format>
        <dc:type
           rdf:resource="http://purl.org/dc/dcmitype/StillImage" />
        <dc:title></dc:title>
      </cc:Work>
    </rdf:RDF>
  </metadata>
  <g
     inkscape:label="Ebene 1"
     inkscape:groupmode="layer"
     id="layer1"
     transform="translate(0,-201.74997)">
    <g
       id="g18688"
       transform="translate(374.95238,105.07738)">
      <g
         id="g19094"
         transform="translate(-21.216112,-1.1769635)">
        <g
           id="g9804"
           transform="matrix(0.35277777,0,0,-0.35277777,-808.83002,834.1909)">
          <g
             id="g9806"
             clip-path="url(#clipPath9810)">
            <g
               id="g9812">
              <g
                 id="g9814">
                <g
                   id="g9816"
                   clip-path="url(#clipPath9820)">
                  <g
                     id="g9822">
                    <path
                       d="m 1053.902,1727.012 c 0,2.097 0.16,2.929 0.571,2.929 0.316,0 9.832,1.094 21.148,2.434 l 20.57,2.43 8.864,4.289 c 17.285,8.363 26.058,12.222 40.535,17.832 15.105,5.851 19.269,7.754 22.101,10.101 0.903,0.75 3.313,3.61 5.348,6.356 10.043,13.535 21.57,22.629 41.746,32.937 12.703,6.489 22.41,10.18 30.485,11.594 5.277,0.922 14.75,0.731 22.375,-0.457 4.199,-0.652 7.5,-0.937 9.05,-0.777 5.039,0.523 15.297,6.652 25.188,15.043 11.129,9.445 19.41,15.781 35.949,27.5 l 8.895,6.3 -0.118,9.993 c -0.125,10.761 -0.925,18.726 -2.351,23.371 -0.664,2.156 -1.508,3.601 -3.324,5.691 -3.872,4.449 -7.262,12.039 -7.293,16.32 -0.02,2.321 -1.512,4.692 -4.813,7.641 -6,5.363 -6.707,8.215 -6.723,27.051 -0.01,14.879 0.34,17.476 2.618,19.523 1.07,0.961 1.816,1.231 3.375,1.231 1.461,0 2.082,0.203 2.289,0.742 0.156,0.41 -0.168,5.777 -0.715,11.93 -2.824,31.55 -1.695,38.511 8.578,52.847 8.652,12.082 22.707,23.883 31.566,26.504 1.707,0.504 5.004,1.539 7.325,2.293 3.769,1.227 4.812,1.379 9.769,1.395 9.028,0.035 18.262,-2.504 30.27,-8.325 17.722,-8.589 28.312,-18.304 34.562,-31.71 3.692,-7.926 4.399,-12.543 4.852,-31.793 0.246,-10.539 0.508,-15.079 0.922,-15.957 0.429,-0.911 1.191,-1.422 2.945,-1.977 6.383,-2.023 8.398,-7.371 7.297,-19.363 -1.199,-13.078 -2.465,-19.004 -4.883,-22.836 -1.609,-2.547 -3.871,-4.262 -9.141,-6.914 -2.199,-1.11 -4.367,-2.348 -4.82,-2.75 -1.34,-1.188 -2.383,-3.657 -3.633,-8.59 -4.527,-17.852 -4.363,-34.192 0.446,-44.817 2.093,-4.625 3.3,-5.543 23.769,-18.062 5.738,-3.508 15.828,-9.84 22.422,-14.07 13.992,-8.977 18.527,-11.598 23.937,-13.844 4.848,-2.012 8.922,-2.453 12.918,-1.406 6.391,1.679 22.555,2.019 33.711,0.711 6.508,-0.766 17.028,-4.536 39.106,-14.024 10.515,-4.519 9.566,-4.012 14.64,-7.777 6.36,-4.719 8.875,-6.93 16.922,-14.867 8.953,-8.829 9.055,-8.879 26.825,-13.512 20.046,-5.227 41.406,-11.817 51.507,-15.887 5.411,-2.183 8.844,-2.613 23.09,-2.902 6.227,-0.129 12.371,-0.336 13.653,-0.469 l 2.332,-0.234 v -4.473 l -4.332,0.25 c -2.379,0.141 -9.723,0.371 -16.317,0.52 -15.472,0.339 -17.113,0.562 -22.961,3.074 -11.058,4.746 -49.285,16.285 -58.457,17.64 -3.656,0.543 -8.121,2.297 -12.586,4.957 -2.476,1.473 -3.336,2.325 -5.051,4.985 -2.753,4.285 -10.152,11.722 -12.078,12.148 -0.789,0.172 -2.453,1.188 -3.695,2.254 -3.699,3.176 -15.449,9.18 -29.254,14.942 -3.051,1.277 -7.566,3.195 -10.031,4.269 -2.465,1.074 -5.805,2.164 -7.422,2.422 -1.617,0.262 -3.637,0.887 -4.484,1.391 -1.274,0.753 -2.782,0.988 -8.575,1.336 -8.562,0.511 -20.246,-0.067 -22.242,-1.106 -2.031,-1.055 -7.445,-1.746 -11.094,-1.414 -7.308,0.664 -14.699,3.73 -22.418,9.289 -7,5.043 -15.824,10.539 -36.726,22.883 -12.777,7.543 -16.082,9.801 -19.238,13.125 -1.868,1.969 -2.629,3.187 -3.184,5.101 -0.398,1.387 -1.008,2.676 -1.355,2.872 -1.102,0.621 -1.489,4.617 -1.809,18.625 l -0.309,13.664 -1.816,-1.746 c -2.844,-2.731 -5.336,-4.235 -14.777,-8.915 -14.719,-7.293 -23.227,-10.621 -23.227,-9.082 0,1.375 5.207,4.856 17.766,11.879 20.152,11.274 23.711,14.34 24.871,21.434 0.887,5.449 1.301,6.867 3.332,11.41 1.094,2.441 1.984,4.941 1.984,5.555 0,0.902 0.231,1.121 1.223,1.16 3.504,0.144 4.211,-0.297 3.801,-2.371 -0.137,-0.688 -0.09,-1.246 0.101,-1.246 0.727,0 6.246,3.25 7.461,4.39 2.223,2.09 3.113,4.387 3.149,8.106 0.039,4.414 -0.352,5.715 -1.821,6.086 -1.234,0.312 -8.988,6 -10.699,7.855 l -1.008,1.086 2.641,2.531 c 2.336,2.243 2.848,2.532 4.476,2.532 2.383,0 3.25,-0.481 6.317,-3.485 4.07,-3.988 4.164,-1.945 0.156,3.442 -1.344,1.804 -2.66,3.941 -2.926,4.746 -0.355,1.09 -0.984,1.707 -2.437,2.39 -1.078,0.512 -2.203,1.383 -2.5,1.938 -0.383,0.711 -0.649,5.969 -0.891,17.75 -0.359,17.512 -0.64,20.859 -1.863,22.086 -0.793,0.801 -0.984,1.48 -1.379,4.91 -0.324,2.809 -2.297,7.066 -5.043,10.883 -1.172,1.633 -2.855,4.172 -3.742,5.644 -1.922,3.2 -3.113,4.371 -7.223,7.094 -1.711,1.133 -4.808,3.367 -6.883,4.965 -2.546,1.957 -6.519,4.266 -12.211,7.09 -9.211,4.57 -9.386,4.629 -14.851,5.199 -2.649,0.273 -4.117,0.664 -5,1.316 -2.902,2.161 -9.356,2.153 -12.27,-0.015 -0.797,-0.594 -2.402,-1.086 -4.332,-1.332 -1.683,-0.215 -3.953,-0.707 -5.043,-1.094 -5.043,-1.797 -13.531,-7.656 -18.984,-13.102 -4.656,-4.652 -10.738,-12.039 -11.844,-14.382 -0.523,-1.118 -1.687,-3.137 -2.578,-4.489 -1.926,-2.918 -3.141,-6.386 -4.055,-11.562 -1.812,-10.305 -0.996,-22.93 1.758,-27.156 0.594,-0.911 0.68,-1.829 0.461,-4.911 -0.254,-3.625 -0.215,-3.839 0.828,-4.812 1.371,-1.277 1.379,-1.785 0.032,-2.125 -1.184,-0.301 -1.313,-0.668 -2.063,-5.949 -0.598,-4.192 -1.035,-4.981 -3.117,-5.664 -0.852,-0.282 -1.926,-1.133 -2.488,-1.973 -1.258,-1.879 -2.551,-7.645 -2.239,-9.977 0.274,-2.046 0.485,-2.378 1.227,-1.918 0.363,0.223 0.457,1.231 0.305,3.168 -0.25,3.11 0.187,3.594 1.71,1.903 1.418,-1.578 1.094,-4.746 -0.804,-7.852 -1.903,-3.109 -2.567,-5.336 -2.563,-8.617 0,-3.355 1.387,-6.113 5.254,-10.492 3.469,-3.922 5.379,-7.399 6.512,-11.824 1.098,-4.297 2.582,-7.688 4.883,-11.172 2.355,-3.563 3.418,-4.453 5.312,-4.457 0.738,0 3.528,-1.008 6.199,-2.235 5.375,-2.465 6.743,-2.652 9.817,-1.324 l 2.094,0.899 2.425,-1.879 2.426,-1.883 -2.371,-1.067 c -1.375,-0.621 -3.242,-1.074 -4.437,-1.082 -3.297,-0.019 -12.731,3.493 -14.922,5.555 -0.977,0.922 -0.996,0.922 -0.996,0.055 0,-2.344 4.003,-4.512 15.613,-8.457 11.531,-3.918 14.305,-5.446 12.547,-6.91 -1.473,-1.227 -9.528,0.878 -18.989,4.964 -6.722,2.903 -7.988,3.149 -8.761,1.696 -0.715,-1.34 -0.219,-4.321 0.883,-5.356 0.511,-0.476 0.929,-0.906 0.937,-0.961 0.01,-0.05 0.199,-3.129 0.426,-6.843 0.555,-9.036 0.012,-15.821 -1.5,-18.821 -1.793,-3.558 -3,-4.496 -20.918,-16.25 -3.906,-2.562 -8.402,-5.812 -9.988,-7.222 -1.586,-1.411 -3.887,-3.051 -5.106,-3.645 -1.363,-0.664 -4.711,-3.434 -8.66,-7.16 -8.02,-7.574 -11.141,-9.973 -16.207,-12.457 -6.547,-3.219 -8.379,-3.559 -19.09,-3.57 -8.578,-0.01 -9.598,0.074 -12.734,1.05 l -3.41,1.059 -2.071,-1.008 c -1.648,-0.801 -3.523,-1.125 -9.246,-1.594 l -7.172,-0.589 -6.777,-3.368 c -3.727,-1.855 -6.859,-3.371 -6.961,-3.371 -0.102,0 -3.457,-1.886 -7.453,-4.191 -4,-2.305 -8.871,-5 -10.828,-5.988 -6.77,-3.422 -20.649,-15.418 -23.442,-20.266 -1.261,-2.184 -1.664,-4.871 -0.777,-5.168 0.93,-0.313 0.535,-0.992 -0.578,-0.992 -0.953,0 -2.899,-1.192 -10.008,-6.145 -3.879,-2.699 -19.344,-9.605 -24.348,-10.875 -1.793,-0.453 -5.39,-1.758 -7.992,-2.902 -2.605,-1.141 -6.078,-2.535 -7.719,-3.098 -3.726,-1.273 -14.617,-6.644 -19.523,-9.625 -2.031,-1.234 -4.285,-2.554 -5.012,-2.941 -2.488,-1.313 -9.968,-2.676 -20.215,-3.688 -8.855,-0.871 -15.582,-1.781 -21.312,-2.89 -3.051,-0.586 -6.5,-1.196 -7.66,-1.352 l -2.106,-0.281 z"
                       style="fill:#000000;fill-opacity:1;fill-rule:nonzero;stroke:none"
                       id="path9824"
                       inkscape:connector-curvature="0" />
                  </g>
                </g>
              </g>
            </g>
          </g>
        </g>
        <path
           inkscape:connector-curvature="0"
           id="path9828"
           style="fill:#000000;fill-opacity:1;fill-rule:nonzero;stroke:none;stroke-width:0.35277778"
           d="m -309.47732,191.70144 c -0.0508,-0.13123 0.0346,-0.43144 0.18768,-0.66992 0.40216,-0.62407 2.37419,-2.92841 3.60186,-4.21111 1.26506,-1.31904 1.46508,-1.14935 0.63535,0.53728 -1.10631,2.25037 -2.23908,3.67806 -3.38314,4.26508 -0.73695,0.37747 -0.92322,0.39264 -1.04175,0.0787 z" />
        <path
           inkscape:connector-curvature="0"
           id="path9830"
           style="fill:#000000;fill-opacity:1;fill-rule:nonzero;stroke:none;stroke-width:0.35277778"
           d="m -316.53005,163.75862 -0.4946,-0.0868 0.99766,-0.91228 c 0.97578,-0.89147 1.0541,-0.92851 3.54965,-1.69334 1.403,-0.43003 3.0801,-0.84349 3.72639,-0.91792 0.88336,-0.10196 1.60267,-0.32915 2.89807,-0.91899 2.29164,-1.04316 2.23908,-1.02799 2.4197,-0.69039 0.19156,0.35948 -0.0109,0.635 -0.85302,1.15606 -1.37512,0.85019 -6.58988,2.93652 -9.08543,3.63396 -1.58045,0.44238 -2.42958,0.55809 -3.15842,0.42968 z" />
        <path
           inkscape:connector-curvature="0"
           id="path9898"
           style="fill:#f60000;fill-opacity:0.530612;fill-rule:nonzero;stroke:none;stroke-width:0.35277778"
           d="m -327.46193,109.32889 h 17.22684 v 13.40132 h -17.22684 z" />
        <path
           inkscape:connector-curvature="0"
           id="path9900"
           style="fill:#00e400;fill-opacity:0.530612;fill-rule:nonzero;stroke:none;stroke-width:0.35277778"
           d="m -313.72159,166.03121 h 17.63889 v 14.43355 h -17.63889 z" />
        <path
           inkscape:connector-curvature="0"
           id="path9902"
           style="fill:#00e400;fill-opacity:0.530612;fill-rule:nonzero;stroke:none;stroke-width:0.35277778"
           d="m -336.69201,166.03121 h 17.63889 v 14.43355 h -17.63889 z" />
        <g
           transform="matrix(0.35277777,0,0,0.35277777,-808.83002,-354.67018)"
           id="g9978">
          <path
             inkscape:connector-curvature="0"
             id="path9980"
             style="fill:none;stroke:#b3b3b3;stroke-width:0.80000001;stroke-linecap:butt;stroke-linejoin:miter;stroke-miterlimit:4;stroke-dasharray:none;stroke-opacity:1"
             d="m 1372.059,1457.559 c 2.23,-1.309 4.734,-2.145 7.304,-2.434 3.555,-0.402 7.149,0.227 10.719,0 4.531,-0.289 9.059,-2.059 12.176,-5.359 0.965,-1.016 1.785,-2.168 2.437,-3.411" />
        </g>
        <g
           transform="matrix(0.35277777,0,0,0.35277777,-808.83002,-354.67018)"
           id="g9982">
          <path
             inkscape:connector-curvature="0"
             id="path9984"
             style="fill:none;stroke:#b3b3b3;stroke-width:0.80000001;stroke-linecap:butt;stroke-linejoin:miter;stroke-miterlimit:4;stroke-dasharray:none;stroke-opacity:1"
             d="m 1389.105,1394.234 c -0.953,6.707 -3.289,13.215 -6.816,18.996 -1.141,1.872 -2.426,3.715 -2.926,5.848 -0.414,1.777 -0.238,3.684 0.489,5.356" />
        </g>
        <g
           transform="matrix(0.35277777,0,0,0.35277777,-808.83002,-354.67018)"
           id="g9990">
          <path
             inkscape:connector-curvature="0"
             id="path9992"
             style="fill:none;stroke:#b3b3b3;stroke-width:0.80000001;stroke-linecap:butt;stroke-linejoin:miter;stroke-miterlimit:4;stroke-dasharray:none;stroke-opacity:1"
             d="m 1366.492,1386.918 c -0.488,-0.168 -0.953,-0.402 -1.379,-0.688 -1.148,-0.773 -2,-1.918 -3.101,-2.757 -0.907,-0.692 -1.977,-1.168 -3.098,-1.375" />
        </g>
      </g>
      <path
         d="m -309.3666,148.04791 c 0.0522,-0.0868 0.44097,-0.15734 0.86113,-0.15734 0.42016,0 0.80751,0.0706 0.86113,0.15734 0.0607,0.0991 -0.26317,0.15699 -0.86113,0.15699 -0.59937,0 -0.92181,-0.0579 -0.86113,-0.15699 z"
         style="fill:#000000;fill-opacity:1;fill-rule:nonzero;stroke:none;stroke-width:0.35277778"
         id="path9832"
         inkscape:connector-curvature="0" />
      <g
         id="g9858"
         transform="matrix(0.35277777,0,0,0.35277777,-820.95928,-351.47588)">
        <path
           d="M 1496.941,1489.871 V 1311.816"
           style="fill:none;stroke:#262626;stroke-width:1.67531097;stroke-linecap:square;stroke-linejoin:round;stroke-miterlimit:10;stroke-dasharray:none;stroke-opacity:1"
           id="path9860"
           inkscape:connector-curvature="0" />
      </g>
      <path
         d="m -241.15243,104.90954 h 42.07439 v 16.43168 h -42.07439 z"
         style="fill:#ffffff;fill-opacity:1;fill-rule:nonzero;stroke:none;stroke-width:0.35277778"
         id="path9928"
         inkscape:connector-curvature="0" />
      <g
         id="g9986"
         transform="matrix(0.35277777,0,0,0.35277777,-820.95928,-351.47588)">
        <path
           d="m 1414.023,1386.574 c 0.704,0.051 1.422,-0.066 2.071,-0.344 0.851,-0.367 1.57,-0.988 2.41,-1.378 0.957,-0.446 2.066,-0.567 3.098,-0.344"
           style="fill:none;stroke:#b3b3b3;stroke-width:0.80000001;stroke-linecap:butt;stroke-linejoin:miter;stroke-miterlimit:4;stroke-dasharray:none;stroke-opacity:1"
           id="path9988"
           inkscape:connector-curvature="0" />
      </g>
      <g
         id="g18988"
         transform="translate(-12.129264,3.1943008)">
        <g
           transform="matrix(0.35277777,0,0,0.35277777,-808.83002,-354.67018)"
           id="g9834">
          <path
             inkscape:connector-curvature="0"
             id="path9836"
             style="fill:none;stroke:#262626;stroke-width:1.67457104;stroke-linecap:square;stroke-linejoin:round;stroke-miterlimit:10;stroke-dasharray:none;stroke-opacity:1"
             d="m 1497.176,1423.102 h 213.886" />
        </g>
        <g
           transform="matrix(0.35277777,0,0,0.35277777,-808.83002,-354.67018)"
           id="g9838">
          <path
             inkscape:connector-curvature="0"
             id="path9840"
             style="fill:none;stroke:#262626;stroke-width:1.67531097;stroke-linecap:square;stroke-linejoin:round;stroke-miterlimit:10;stroke-dasharray:none;stroke-opacity:1"
             d="m 1540.004,1423.215 v -2.153" />
        </g>
        <g
           transform="matrix(0.35277777,0,0,0.35277777,-808.83002,-354.67018)"
           id="g9842">
          <path
             inkscape:connector-curvature="0"
             id="path9844"
             style="fill:none;stroke:#262626;stroke-width:1.67531097;stroke-linecap:square;stroke-linejoin:round;stroke-miterlimit:10;stroke-dasharray:none;stroke-opacity:1"
             d="m 1582.781,1423.215 v -2.153" />
        </g>
        <g
           transform="matrix(0.35277777,0,0,0.35277777,-808.83002,-354.67018)"
           id="g9846">
          <path
             inkscape:connector-curvature="0"
             id="path9848"
             style="fill:none;stroke:#262626;stroke-width:1.67531097;stroke-linecap:square;stroke-linejoin:round;stroke-miterlimit:10;stroke-dasharray:none;stroke-opacity:1"
             d="m 1625.559,1423.215 v -2.153" />
        </g>
        <g
           transform="matrix(0.35277777,0,0,0.35277777,-808.83002,-354.67018)"
           id="g9850">
          <path
             inkscape:connector-curvature="0"
             id="path9852"
             style="fill:none;stroke:#262626;stroke-width:1.67531097;stroke-linecap:square;stroke-linejoin:round;stroke-miterlimit:10;stroke-dasharray:none;stroke-opacity:1"
             d="m 1668.336,1423.215 v -2.153" />
        </g>
        <g
           transform="matrix(0.35277777,0,0,0.35277777,-808.83002,-354.67018)"
           id="g9854">
          <path
             inkscape:connector-curvature="0"
             id="path9856"
             style="fill:none;stroke:#262626;stroke-width:1.67531097;stroke-linecap:square;stroke-linejoin:round;stroke-miterlimit:10;stroke-dasharray:none;stroke-opacity:1"
             d="m 1496.941,1311.816 v 2.153" />
        </g>
        <g
           transform="matrix(0.35277777,0,0,0.35277777,-808.83002,-354.67018)"
           id="g9862">
          <path
             inkscape:connector-curvature="0"
             id="path9864"
             style="fill:none;stroke:#262626;stroke-width:1.67531097;stroke-linecap:square;stroke-linejoin:round;stroke-miterlimit:10;stroke-dasharray:none;stroke-opacity:1"
             d="m 1496.941,1467.613 h 2.137" />
        </g>
        <g
           transform="matrix(0.35277777,0,0,0.35277777,-808.83002,-354.67018)"
           id="g9866">
          <path
             inkscape:connector-curvature="0"
             id="path9868"
             style="fill:none;stroke:#262626;stroke-width:1.67531097;stroke-linecap:square;stroke-linejoin:round;stroke-miterlimit:10;stroke-dasharray:none;stroke-opacity:1"
             d="m 1496.941,1445.359 h 2.137" />
        </g>
        <g
           transform="matrix(0.35277777,0,0,0.35277777,-808.83002,-354.67018)"
           id="g9870">
          <path
             inkscape:connector-curvature="0"
             id="path9872"
             style="fill:none;stroke:#262626;stroke-width:1.67531097;stroke-linecap:square;stroke-linejoin:round;stroke-miterlimit:10;stroke-dasharray:none;stroke-opacity:1"
             d="m 1496.941,1400.844 h 2.137" />
        </g>
        <g
           transform="matrix(0.35277777,0,0,0.35277777,-808.83002,-354.67018)"
           id="g9874">
          <path
             inkscape:connector-curvature="0"
             id="path9876"
             style="fill:none;stroke:#262626;stroke-width:1.67531097;stroke-linecap:square;stroke-linejoin:round;stroke-miterlimit:10;stroke-dasharray:none;stroke-opacity:1"
             d="m 1496.941,1378.586 h 2.137" />
        </g>
        <g
           transform="matrix(0.35277777,0,0,0.35277777,-808.83002,-354.67018)"
           id="g9878">
          <path
             inkscape:connector-curvature="0"
             id="path9880"
             style="fill:none;stroke:#262626;stroke-width:1.67531097;stroke-linecap:square;stroke-linejoin:round;stroke-miterlimit:10;stroke-dasharray:none;stroke-opacity:1"
             d="m 1496.941,1356.332 h 2.137" />
        </g>
        <g
           transform="matrix(0.35277777,0,0,0.35277777,-808.83002,-354.67018)"
           id="g9882">
          <path
             inkscape:connector-curvature="0"
             id="path9884"
             style="fill:none;stroke:#262626;stroke-width:1.67531097;stroke-linecap:square;stroke-linejoin:round;stroke-miterlimit:10;stroke-dasharray:none;stroke-opacity:1"
             d="m 1496.941,1334.074 h 2.137" />
        </g>
        <g
           transform="matrix(0.35277777,0,0,0.35277777,-808.83002,-354.67018)"
           id="g9890">
          <path
             inkscape:connector-curvature="0"
             id="path9892"
             style="fill:none;stroke:#10e001;stroke-width:2.68049788;stroke-linecap:butt;stroke-linejoin:round;stroke-miterlimit:10;stroke-dasharray:none;stroke-opacity:1"
             d="m 1497.891,1478.199 c 2.976,-1.14 2.855,3.684 5.726,2.758 2.192,0.301 2.363,-2.699 2.699,-4.23 2.711,-19.289 3.293,-38.832 4.883,-58.254 1.371,-17.211 2.004,-34.575 4.946,-51.582 1,-3.633 1.339,-7.926 4.085,-10.571 2.293,-2.07 6.231,-0.66 7.129,2.246 2.516,5.895 3.34,12.489 5.512,18.551 0.918,2.391 1.836,6.137 5.137,5.781 2.539,-0.011 4.73,1.465 5.703,3.786 1.715,1.664 1.953,4.148 3.137,6.148 1.175,3.523 2.527,6.777 3.422,10.395 1.265,2.648 1.718,5.843 2.742,8.668 1.57,4.761 2.945,9.578 4.765,14.253 0.578,2.231 1.661,4.305 2.282,6.368 0.925,2.488 2.468,4.832 3.421,7.293 0.657,1.781 1.946,3.355 2.473,5.304 1.664,1.942 2.5,4.739 4.375,6.731 1.082,2.086 3.184,3.597 3.895,5.886 1.683,1.805 3.246,4.09 4.945,5.946 1.922,1.512 2.387,4.375 4.184,6.187 0.785,2.117 2.742,3.219 4.086,4.973 0.578,1.871 2.921,1.5 4.183,2.723 1.988,1.109 5.707,1.16 5.324,-2.094 1.973,-6.969 1.95,-14.422 2.797,-21.621 2.395,-30.649 3.762,-61.383 6.801,-91.973 0.781,-6.125 1.238,-12.555 3.043,-18.34 0.582,-3.918 2.598,-7.051 5.133,-9.812 1.086,-0.985 2.703,-1.489 4.183,-0.746 1.086,2.496 2.262,4.843 2.66,7.668 1.379,4.238 1.872,9.175 3.235,13.597 0.906,2.969 1.832,5.879 2.851,8.629 0.957,1.473 1.567,2.945 2.946,4.035 2.172,1.84 5.14,3.493 5.23,6.813 1.063,1.566 1.934,3.324 2.567,5.004 0.711,3.078 2.25,5.715 2.757,8.836 0.75,3.039 2.153,5.859 2.661,8.988 1.379,3.309 1.421,7.219 2.933,10.332 1.137,4.309 2.129,8.648 3.434,12.785 0.629,3.391 2.371,6.356 2.949,9.75 1.637,3.449 2.543,7.137 4.469,10.465 0.98,1.777 1.726,4.043 2.851,5.871 0.895,1.91 2.008,4.012 3.137,5.754 0.641,1.602 1.703,3.102 2.566,4.539 0.852,1.93 3.625,0.922 4.278,2.969 1.426,1.34 3.324,2.355 3.898,4.398 0.696,1.133 2.586,0.942 2.567,2.563 0.828,1.222 1.871,2.308 2.945,3.176 0.941,1.464 2.211,3.046 3.613,4.167 1.039,1 2.789,1.329 3.707,2.559" />
        </g>
        <g
           transform="matrix(0.35277777,0,0,0.35277777,-808.83002,-354.67018)"
           id="g9894">
          <path
             inkscape:connector-curvature="0"
             id="path9896"
             style="fill:none;stroke:#d92319;stroke-width:2.68099093;stroke-linecap:butt;stroke-linejoin:round;stroke-miterlimit:10;stroke-dasharray:none;stroke-opacity:1"
             d="m 1497.891,1450.934 c 2.195,-0.414 3.261,1.871 4.562,3.125 1.309,1.945 3.086,3.281 4.375,5.164 1.551,0.109 1.762,1.82 3.137,2.3 0.629,0.899 1.605,1.325 2.469,1.973 -0.039,1.383 1.945,0.813 1.996,2.399 1.34,0.894 2.039,2.621 3.707,3.011 0.793,1.297 2.746,1 3.425,2.414 1.391,0.535 2.461,1.516 3.516,2.414 2.344,0.864 2.512,-1.031 3.137,-2.546 2.937,-20.27 3.582,-40.809 5.16,-61.223 1.078,-13.996 1.926,-28.11 3.965,-41.906 0.648,-3.621 1.172,-7.414 3.137,-10.528 2.125,-1.992 5.543,-1.133 7.796,0.145 1.348,1.168 2.188,2.539 2.758,4.32 1.672,3.93 2.258,8.457 3.707,12.356 0.696,1.816 0.809,3.925 2.473,5.101 1.566,2.422 4.508,0.125 6.746,0.824 2.731,0.352 3.824,3.137 4.945,5.383 1.219,2.86 2.606,5.649 3.516,8.707 1.441,3.774 2.656,7.344 3.992,11.094 1.043,3.07 2.227,6.019 3.137,9.203 0.949,1.648 1.308,3.633 2.281,5.363 0.879,1.575 1.305,3.34 2.188,4.766 1.082,2.187 2.246,4.336 3.328,6.402 1.515,2.735 3.008,5.617 4.847,8.387 1.352,2.523 2.797,4.859 4.469,7.211 1.184,0.957 1.953,2.645 2.754,3.75 0.746,0.785 1.125,2.098 2.094,2.75 1.379,2.145 2.851,4.172 4.656,5.887 1.426,1.718 2.348,3.804 3.805,5.472 0.969,1.481 2.261,2.844 3.23,4.274 1.348,1.027 2.692,2.156 3.899,3.297 1.218,1.054 2.234,2.468 3.609,3.359 2.359,0.836 2.773,-1.172 2.949,-2.969 2.34,-13.937 2.77,-28.289 3.942,-42.429 1.406,-18.692 2.277,-37.496 4.992,-56.024 0.707,-3.906 1.433,-7.965 3.422,-11.308 1.761,-1.872 4.734,-1.575 7.035,-1.18 2.664,1.266 3.242,4.687 4.183,7.301 0.817,3.343 1.723,6.617 2.567,9.925 0.543,1.664 0.609,3.454 1.711,4.875 0.383,2.079 2,3.5 4.09,3.649 1.945,0.187 3.847,0.601 4.941,2.293 2.078,2.086 2.773,4.992 4.086,7.504 1.223,2.078 1.074,4.601 2.664,6.34 0.887,3.328 2.25,6.507 3.231,9.738 1.191,3.359 2.187,6.812 3.519,10.094 0.422,2.367 1.762,3.976 2.09,6.343 1.297,1.649 1.332,3.809 2.449,5.454 0.777,2.117 1.727,4.476 3.731,5.652 1.011,1.695 2.414,3.144 3.515,4.898 0.555,0.524 1.008,1.324 1.332,1.934" />
        </g>
        <g
           transform="matrix(0.35277777,0,0,0.35277777,-808.83002,-354.67018)"
           id="g9904">
          <path
             inkscape:connector-curvature="0"
             id="path9906"
             style="fill:none;stroke:#000000;stroke-width:1.67531097;stroke-linecap:butt;stroke-linejoin:miter;stroke-miterlimit:4;stroke-dasharray:none;stroke-opacity:1"
             d="m 1520.895,1320.824 v 28.055" />
        </g>
        <g
           transform="matrix(0.35277777,0,0,0.35277777,-808.83002,-354.67018)"
           id="g9908">
          <path
             inkscape:connector-curvature="0"
             id="path9910"
             style="fill:none;stroke:#000000;stroke-width:1.67531097;stroke-linecap:butt;stroke-linejoin:miter;stroke-miterlimit:4;stroke-dasharray:none;stroke-opacity:1"
             d="m 1544.148,1320.824 v 28.055" />
        </g>
        <g
           transform="matrix(0.35277777,0,0,0.35277777,-808.83002,-354.67018)"
           id="g9912">
          <path
             inkscape:connector-curvature="0"
             id="path9914"
             style="fill:none;stroke:#000000;stroke-width:1.00518703;stroke-linecap:butt;stroke-linejoin:miter;stroke-miterlimit:4;stroke-dasharray:none;stroke-opacity:1"
             d="m 1547.043,1334.852 h 16.059" />
        </g>
        <g
           transform="matrix(0.35277777,0,0,0.35277777,-808.83002,-354.67018)"
           id="g9916">
          <path
             inkscape:connector-curvature="0"
             id="path9918"
             style="fill:#000000;fill-opacity:1;fill-rule:evenodd;stroke:#000000;stroke-width:1.00518703;stroke-linecap:butt;stroke-linejoin:miter;stroke-miterlimit:4;stroke-dasharray:none;stroke-opacity:1"
             d="m 1557.094,1334.852 4.023,-4.02 -14.074,4.02 14.074,4.019 z" />
        </g>
        <g
           transform="matrix(0.35277777,0,0,0.35277777,-808.83002,-354.67018)"
           id="g9920">
          <path
             inkscape:connector-curvature="0"
             id="path9922"
             style="fill:none;stroke:#000000;stroke-width:1.00518703;stroke-linecap:butt;stroke-linejoin:miter;stroke-miterlimit:4;stroke-dasharray:none;stroke-opacity:1"
             d="m 1517.656,1334.852 h -16.058" />
        </g>
        <g
           transform="matrix(-0.35277777,0,0,-0.35277777,-808.83002,-354.67018)"
           id="g9924">
          <path
             inkscape:connector-curvature="0"
             id="path9926"
             style="fill:#000000;fill-opacity:1;fill-rule:evenodd;stroke:#000000;stroke-width:1.00518703;stroke-linecap:butt;stroke-linejoin:miter;stroke-miterlimit:4;stroke-dasharray:none;stroke-opacity:1"
             d="m -1507.605,-1334.852 4.023,-4.019 -14.074,4.019 14.074,4.02 z" />
        </g>
        <text
           id="text18692"
           y="102.19423"
           x="-277.92642"
           style="font-style:normal;font-variant:normal;font-weight:normal;font-stretch:normal;font-size:4.93888855px;line-height:3.70416665px;font-family:Roboto;-inkscape-font-specification:Roboto;text-align:center;letter-spacing:0px;word-spacing:0px;text-anchor:middle;fill:#000000;fill-opacity:1;stroke:none;stroke-width:0.26458332px;stroke-linecap:butt;stroke-linejoin:miter;stroke-opacity:1"
           xml:space="preserve"><tspan
             style="font-size:4.93888903px;line-height:6.3499999px;text-align:start;text-anchor:start;stroke-width:0.26458332px"
             y="102.19423"
             x="-277.92642"
             id="tspan18690"
             sodipodi:role="line">Phasenunterschied durch</tspan><tspan
             id="tspan18694"
             style="font-size:4.93888903px;line-height:6.3499999px;text-align:start;text-anchor:start;stroke-width:0.26458332px"
             y="108.54423"
             x="-277.92642"
             sodipodi:role="line">unterschiedliche Laufzeiten</tspan></text>
      </g>
      <g
         id="g18764"
         transform="translate(16.698238,212.14824)">
        <g
           transform="matrix(0.35277777,0,0,0.35277777,-808.83002,-535.93016)"
           id="g9930">
          <path
             inkscape:connector-curvature="0"
             id="path9932"
             style="fill:none;stroke:#10e001;stroke-width:2.68099093;stroke-linecap:round;stroke-linejoin:round;stroke-miterlimit:4;stroke-dasharray:none;stroke-opacity:1"
             d="m 1665.582,1305.551 h 24.406" />
        </g>
        <g
           transform="matrix(0.35277777,0,0,0.35277777,-808.83002,-535.93016)"
           id="g9934">
          <path
             inkscape:connector-curvature="0"
             id="path9936"
             style="fill:none;stroke:#da281e;stroke-width:2.68099093;stroke-linecap:round;stroke-linejoin:round;stroke-miterlimit:4;stroke-dasharray:none;stroke-opacity:1"
             d="m 1665.582,1328.223 h 25.438" />
        </g>
        <text
           id="text18692-3"
           y="-73.629768"
           x="-187.09218"
           style="font-style:normal;font-variant:normal;font-weight:normal;font-stretch:normal;font-size:4.93888855px;line-height:3.70416665px;font-family:Roboto;-inkscape-font-specification:Roboto;text-align:center;letter-spacing:0px;word-spacing:0px;text-anchor:middle;fill:#000000;fill-opacity:1;stroke:none;stroke-width:0.26458332px;stroke-linecap:butt;stroke-linejoin:miter;stroke-opacity:1"
           xml:space="preserve"><tspan
             id="tspan18694-7"
             style="font-size:4.93888903px;line-height:6.3499999px;stroke-width:0.26458332px"
             y="-73.629768"
             x="-187.09218"
             sodipodi:role="line">rPPG-Signal am Hals</tspan></text>
        <text
           id="text18692-3-5"
           y="-65.274673"
           x="-184.0732"
           style="font-style:normal;font-variant:normal;font-weight:normal;font-stretch:normal;font-size:4.93888855px;line-height:3.70416665px;font-family:Roboto;-inkscape-font-specification:Roboto;text-align:center;letter-spacing:0px;word-spacing:0px;text-anchor:middle;fill:#000000;fill-opacity:1;stroke:none;stroke-width:0.26458332px;stroke-linecap:butt;stroke-linejoin:miter;stroke-opacity:1"
           xml:space="preserve"><tspan
             id="tspan18694-7-3"
             style="font-size:4.93888903px;line-height:6.3499999px;stroke-width:0.26458332px"
             y="-65.274673"
             x="-184.0732"
             sodipodi:role="line">rPPG-Signal an der Stirn</tspan></text>
      </g>
      <text
         xml:space="preserve"
         style="font-style:normal;font-variant:normal;font-weight:normal;font-stretch:normal;font-size:4.93888855px;line-height:3.70416665px;font-family:Roboto;-inkscape-font-specification:Roboto;text-align:center;letter-spacing:0px;word-spacing:0px;text-anchor:middle;fill:#000000;fill-opacity:1;stroke:none;stroke-width:0.26458332px;stroke-linecap:butt;stroke-linejoin:miter;stroke-opacity:1"
         x="-278.83301"
         y="179.70596"
         id="text18692-5"><tspan
           sodipodi:role="line"
           x="-278.83301"
           y="179.70596"
           style="font-size:4.93888903px;line-height:6.3499999px;text-align:start;text-anchor:start;stroke-width:0.26458332px"
           id="tspan18694-2">Die Messung des Phasenunterschiedes ermöglicht die Bestimmung </tspan><tspan
           sodipodi:role="line"
           x="-278.83301"
           y="186.05597"
           style="font-size:4.93888903px;line-height:6.3499999px;text-align:start;text-anchor:start;stroke-width:0.26458332px"
           id="tspan18943">der Pulswellengeschwindighkeit als wichtiges Blutdruck-Korrelat</tspan></text>
    </g>
  </g>
</svg>
